<svg xmlns:xlink="http://www.w3.org/1999/xlink" xmlns="http://www.w3.org/2000/svg" width="202" height="89" viewBox="0 0 202 89" fill="none">
<path d="M184.464 33.5446H89.1512C87.6182 30.7109 85.5464 28.204 83.0521 26.1648C81.2308 24.5845 79.0798 23.4305 76.7559 22.7868C74.4321 22.1432 71.9939 22.0262 69.619 22.4444L68.7804 22.6274L68.8872 21.743C69.1686 19.2793 68.9048 16.7837 68.1143 14.4333C67.3238 12.0829 66.026 9.93514 64.3129 8.1422C62.0341 5.62188 59.2604 3.59817 56.1648 2.19729C53.0692 0.796416 49.7182 0.0484329 46.3208 0C42.9145 0.0491717 39.5547 0.797206 36.4493 2.19777C33.3439 3.59833 30.5592 5.62158 28.2677 8.1422C26.6277 9.98061 25.3834 12.1367 24.6122 14.4765C23.841 16.8163 23.5594 19.2898 23.7849 21.743L23.8916 22.6274L23.0377 22.4444C20.6174 22.0362 18.1373 22.1574 15.7683 22.7997C13.3993 23.4419 11.1977 24.59 9.31494 26.1648C6.63727 28.403 4.48348 31.2016 3.00559 34.3631C1.5277 37.5246 0.761719 40.972 0.761719 44.4619C0.761719 47.9518 1.5277 51.3991 3.00559 54.5607C4.48348 57.7222 6.63727 60.5208 9.31494 62.759C11.195 64.3382 13.3965 65.4891 15.7663 66.1316C18.1361 66.774 20.6174 66.8927 23.0377 66.4794L23.8916 66.3116L23.7849 67.1807C23.5592 69.6411 23.8435 72.1216 24.6201 74.467C25.3967 76.8125 26.6488 78.9725 28.2982 80.8121C30.5891 83.3294 33.3716 85.3506 36.474 86.751C39.5763 88.1514 42.9327 88.9012 46.336 88.9543C49.7464 88.9163 53.112 88.1733 56.2214 86.7721C59.3309 85.3709 62.1169 83.3417 64.4044 80.8121C66.1254 79.0246 67.4284 76.8775 68.2194 74.5255C69.0104 72.1736 69.2697 69.6755 68.9786 67.2112L68.8719 66.3421L69.7258 66.5098C72.0982 66.9268 74.5338 66.8091 76.855 66.1655C79.1762 65.5219 81.3246 64.3685 83.1436 62.7895C86.113 60.0467 88.3732 56.625 89.7306 52.8175H138.431C139.108 52.7803 139.786 52.8811 140.422 53.1138C141.059 53.3465 141.642 53.7063 142.135 54.1712C142.629 54.6361 143.023 55.1965 143.293 55.8183C143.563 56.4401 143.704 57.1103 143.707 57.7883C143.705 58.4755 143.566 59.1556 143.299 59.7888C143.032 60.4221 142.642 60.9958 142.151 61.4768C141.66 61.9578 141.078 62.3364 140.44 62.5905C139.801 62.8447 139.118 62.9693 138.431 62.9572H133.994V89H153.374V68.1413C153.374 67.4541 153.51 66.7737 153.776 66.1397C154.041 65.5057 154.43 64.9308 154.919 64.4484C155.409 63.966 155.989 63.5857 156.627 63.3297C157.265 63.0737 157.947 62.9471 158.634 62.9572C160.069 62.9186 161.462 63.437 162.522 64.4035C163.583 65.37 164.228 66.7097 164.322 68.1413V89H183.488V62.9572H179.218C178.534 62.9734 177.853 62.8531 177.216 62.6033C176.578 62.3534 175.997 61.9791 175.506 61.5022C175.015 61.0252 174.624 60.4552 174.355 59.8254C174.087 59.1956 173.947 58.5186 173.943 57.834C173.948 57.156 174.091 56.4862 174.361 55.8646C174.632 55.243 175.026 54.6826 175.518 54.2169C176.011 53.7512 176.593 53.3899 177.229 53.1547C177.864 52.9194 178.541 52.8151 179.218 52.848H184.464C185.724 52.8541 186.973 52.6113 188.139 52.1338C189.305 51.6562 190.365 50.9532 191.259 50.0651C192.153 49.1769 192.862 48.1211 193.347 46.9581C193.832 45.7951 194.083 44.5479 194.085 43.2878C194.093 42.0163 193.85 40.7557 193.371 39.5779C192.892 38.4002 192.186 37.3283 191.292 36.4235C190.399 35.5188 189.336 34.7989 188.164 34.3049C186.993 33.811 185.735 33.5526 184.464 33.5446ZM62.2545 53.9001C60.2459 53.9388 58.2783 53.3293 56.6434 52.1619L53.5939 55.0589C54.7265 56.4972 55.3678 58.2608 55.4236 60.0906C55.4236 62.517 54.4597 64.8439 52.744 66.5596C51.0283 68.2753 48.7014 69.2392 46.275 69.2392C43.8487 69.2392 41.5217 68.2753 39.806 66.5596C38.0903 64.8439 37.1265 62.517 37.1265 60.0906C37.1252 58.271 37.7256 56.5019 38.8342 55.0589L35.7847 52.1619C34.2021 53.2147 32.3622 53.8157 30.4633 53.9001C29.2722 53.9242 28.088 53.713 26.9787 53.2786C25.8693 52.8443 24.8565 52.1954 23.9983 51.369C22.2763 49.6092 21.3128 47.2443 21.3148 44.7821C21.3148 42.3557 22.2786 40.0288 23.9943 38.3131C25.71 36.5974 28.037 35.6335 30.4633 35.6335C32.3976 35.7116 34.2587 36.3942 35.7847 37.5852L38.8342 34.6272C37.7472 33.0033 37.1686 31.0923 37.1722 29.1381C37.1722 26.7117 38.1361 24.3848 39.8518 22.6691C41.5675 20.9534 43.8944 19.9895 46.3208 19.9895C48.7636 19.9798 51.1105 20.9394 52.8467 22.6579C53.6877 23.506 54.3514 24.5131 54.7991 25.6205C55.2467 26.7279 55.4694 27.9133 55.4541 29.1076C55.4131 31.0802 54.7751 32.9941 53.6243 34.5967L56.6739 37.5547C58.2392 36.237 60.2404 35.5517 62.285 35.6335C64.7113 35.6335 67.0383 36.5974 68.754 38.3131C70.4696 40.0288 71.4335 42.3557 71.4335 44.7821C71.4335 47.2084 70.4696 49.5354 68.754 51.2511C67.0383 52.9668 64.7113 53.9306 62.285 53.9306L62.2545 53.9001ZM195.777 78.159C196.77 78.1408 197.746 78.4186 198.58 78.957C199.415 79.4954 200.07 80.27 200.463 81.1821C200.855 82.0942 200.967 83.1025 200.785 84.0786C200.602 85.0547 200.133 85.9543 199.438 86.6629C198.742 87.3716 197.851 87.857 196.879 88.0575C195.906 88.258 194.896 88.1645 193.977 87.7888C193.057 87.4131 192.271 86.7723 191.717 85.948C191.164 85.1237 190.868 84.1532 190.868 83.1602C190.851 82.5067 190.966 81.8565 191.206 81.2484C191.446 80.6402 191.806 80.0865 192.263 79.62C192.721 79.1535 193.268 78.7838 193.872 78.5328C194.476 78.2818 195.124 78.1547 195.777 78.159ZM195.777 77.3356C194.625 77.3356 193.499 77.6772 192.541 78.3172C191.584 78.9572 190.837 79.8669 190.396 80.9312C189.955 81.9955 189.84 83.1666 190.065 84.2965C190.289 85.4264 190.844 86.4642 191.659 87.2788C192.473 88.0934 193.511 88.6481 194.641 88.8728C195.771 89.0976 196.942 88.9822 198.006 88.5414C199.071 88.1005 199.98 87.354 200.62 86.3961C201.26 85.4383 201.602 84.3122 201.602 83.1602C201.612 82.3925 201.468 81.6305 201.179 80.9192C200.89 80.2079 200.462 79.5617 199.919 79.0188C199.376 78.4758 198.73 78.0472 198.018 77.7581C197.307 77.469 196.545 77.3254 195.777 77.3356ZM194.497 83.5261H195.884L197.775 86.5756H198.751L196.738 83.5261C197.21 83.4985 197.652 83.2863 197.969 82.9354C198.285 82.5844 198.451 82.1229 198.43 81.6507C198.43 80.4461 197.76 79.7905 196.235 79.7905H193.658V86.5147H194.481L194.497 83.5261ZM194.497 82.8247V80.4919H196.021C196.829 80.4919 197.546 80.7053 197.546 81.6507C197.546 82.596 196.54 82.8247 195.518 82.8247H194.497Z" fill="#CC0000"/>
</svg>